<?xml version="1.0" encoding="UTF-8"?><svg id="a" xmlns="http://www.w3.org/2000/svg" width="108" height="16" viewBox="0 0 108 16"><path d="m8.103,7.081l4.577-5.081h-1.085l-3.975,4.412-3.174-4.412H.786l4.8,6.672L.786,14h1.085l4.197-4.659,3.352,4.659h3.661l-4.978-6.919h0Zm-1.486,1.649l-.486-.664L2.261,2.78h1.666l3.123,4.266.486.664,4.06,5.545h-1.666l-3.313-4.525h0Z" fill="#fff"/><path d="m21.48,9.5c0,.383.065.709.196.98.13.271.312.493.546.665.233.173.501.299.805.378.303.08.632.119.987.119.382,0,.709-.044.98-.133.271-.088.49-.203.658-.343s.29-.301.364-.483.112-.366.112-.553c0-.382-.086-.665-.259-.847-.173-.182-.362-.311-.567-.385-.355-.13-.768-.254-1.239-.371-.471-.116-1.052-.268-1.743-.455-.429-.112-.786-.259-1.071-.441-.285-.182-.511-.385-.679-.609-.168-.224-.287-.462-.357-.714-.07-.252-.105-.509-.105-.77,0-.504.105-.94.315-1.309.21-.369.488-.674.833-.917s.737-.422,1.176-.539c.438-.117.882-.175,1.33-.175.522,0,1.015.068,1.477.203.462.135.868.338,1.218.609s.627.604.833,1.001c.205.396.308.856.308,1.379h-1.75c-.047-.644-.266-1.099-.658-1.365-.392-.266-.891-.399-1.498-.399-.205,0-.415.021-.63.063s-.411.112-.588.21c-.177.098-.324.231-.441.399-.117.168-.175.378-.175.63,0,.354.11.632.329.833s.506.353.861.455c.038.009.185.049.441.119.256.07.543.147.861.231s.627.166.931.245c.303.08.52.138.651.175.327.103.611.243.854.42s.445.38.609.609c.163.229.285.474.364.735.079.262.119.523.119.784,0,.56-.114,1.039-.343,1.435-.229.396-.53.721-.903.973-.373.252-.798.437-1.274.553s-.961.175-1.456.175c-.569,0-1.106-.07-1.61-.21-.504-.14-.943-.354-1.316-.644-.374-.289-.672-.66-.896-1.113s-.341-.987-.35-1.603h1.75Z" fill="#fff"/><path d="m29.221,2.835h1.596v1.512h-1.596v-1.512Zm0,2.758h1.596v7.238h-1.596v-7.238Z" fill="#fff"/><path d="m39.246,12.454c0,1.092-.306,1.906-.917,2.443-.612.537-1.491.805-2.639.805-.364,0-.73-.038-1.099-.112s-.705-.201-1.008-.378c-.304-.177-.558-.411-.763-.7-.206-.29-.327-.644-.364-1.064h1.596c.047.224.126.406.238.546.112.14.245.25.399.329.154.079.324.13.511.154.187.023.383.035.588.035.644,0,1.115-.159,1.414-.476.299-.317.448-.775.448-1.372v-1.106h-.028c-.224.401-.53.714-.917.938-.388.224-.805.336-1.253.336-.579,0-1.071-.1-1.477-.301-.406-.201-.742-.476-1.008-.826s-.46-.753-.581-1.211-.182-.947-.182-1.47c0-.485.074-.947.224-1.386.149-.439.364-.824.644-1.155.28-.331.623-.595,1.029-.791.406-.196.865-.294,1.379-.294.457,0,.877.096,1.26.287s.677.492.882.903h.028v-.994h1.596v6.86Zm-3.542-.882c.354,0,.655-.072.903-.217.247-.145.448-.336.602-.574.154-.238.266-.509.336-.812s.105-.609.105-.917-.038-.607-.112-.896c-.075-.29-.189-.546-.343-.77-.154-.224-.355-.401-.602-.532-.247-.13-.544-.196-.889-.196-.355,0-.654.075-.896.224-.243.149-.439.343-.588.581-.149.238-.257.509-.322.812-.065.304-.098.604-.098.903s.037.59.112.875c.074.285.189.539.343.763s.35.406.588.546c.238.14.525.21.861.21Z" fill="#fff"/><path d="m40.855,5.594h1.512v1.064l.028.028c.243-.401.56-.716.952-.945.392-.229.826-.343,1.302-.343.793,0,1.419.206,1.876.616.458.411.686,1.027.686,1.848v4.97h-1.596v-4.55c-.019-.569-.14-.982-.364-1.239-.224-.256-.574-.385-1.05-.385-.271,0-.514.049-.728.147-.215.098-.397.233-.546.406-.149.173-.266.376-.35.609-.084.233-.126.481-.126.742v4.27h-1.596v-7.238Z" fill="#fff"/><path d="m52.825,2.835h1.596v1.512h-1.596v-1.512Zm0,2.758h1.596v7.238h-1.596v-7.238Z" fill="#fff"/><path d="m56.157,5.594h1.512v1.064l.028.028c.243-.401.56-.716.952-.945.392-.229.826-.343,1.302-.343.793,0,1.419.206,1.876.616.458.411.686,1.027.686,1.848v4.97h-1.596v-4.55c-.019-.569-.14-.982-.364-1.239-.224-.256-.574-.385-1.05-.385-.271,0-.514.049-.728.147-.215.098-.397.233-.546.406-.149.173-.266.376-.35.609-.084.233-.126.481-.126.742v4.27h-1.596v-7.238Z" fill="#fff"/><path d="m67.427,5.594h1.694l1.414,5.404h.028l1.358-5.404h1.61l1.302,5.404h.028l1.47-5.404h1.624l-2.268,7.238h-1.638l-1.344-5.376h-.028l-1.33,5.376h-1.68l-2.24-7.238Z" fill="#fff"/><path d="m79.019,2.835h1.596v1.512h-1.596v-1.512Zm0,2.758h1.596v7.238h-1.596v-7.238Z" fill="#fff"/><path d="m81.623,5.594h1.204v-2.17h1.596v2.17h1.442v1.19h-1.442v3.864c0,.168.007.313.021.434.014.122.046.224.098.308s.128.147.231.189c.103.042.242.063.42.063.112,0,.224-.002.336-.007.112-.005.224-.021.336-.049v1.232c-.177.019-.35.037-.518.056-.168.019-.341.028-.518.028-.42,0-.758-.04-1.015-.119-.257-.08-.458-.196-.602-.35-.145-.154-.243-.348-.294-.581-.052-.233-.082-.499-.091-.798v-4.27h-1.204v-1.19Z" fill="#fff"/><path d="m87.013,2.835h1.596v3.71h.028c.196-.327.488-.6.875-.819s.819-.329,1.295-.329c.793,0,1.419.206,1.876.616.458.411.686,1.027.686,1.848v4.97h-1.596v-4.55c-.019-.569-.14-.982-.364-1.239-.224-.256-.574-.385-1.05-.385-.271,0-.514.049-.728.147-.215.098-.397.233-.546.406-.149.173-.266.376-.35.609-.084.233-.126.481-.126.742v4.27h-1.596V2.835Z" fill="#fff"/><path d="m98.296,2.835h2.086l2.268,3.528,2.366-3.528h1.96l-3.304,4.816,3.542,5.18h-2.128l-2.492-3.822-2.534,3.822h-2.002l3.542-5.18-3.304-4.816Z" fill="#fff"/></svg>